<mxfile host="app.diagrams.net" modified="2024-01-18T12:45:13.296Z" agent="Mozilla/5.0 (Windows NT 10.0; Win64; x64) AppleWebKit/537.36 (KHTML, like Gecko) Chrome/120.0.0.0 Safari/537.36" etag="K8-n308L3vj4Egz1LUHw" version="22.1.21" type="google">
  <diagram name="Page-1" id="k6-2u6Qk9lwQe1FRL1kJ">
    <mxGraphModel grid="1" page="1" gridSize="10" guides="1" tooltips="1" connect="1" arrows="1" fold="1" pageScale="1" pageWidth="850" pageHeight="1100" math="0" shadow="0">
      <root>
        <mxCell id="0" />
        <mxCell id="1" parent="0" />
        <mxCell id="iomMhKjx7vtd8hV3Dabb-5" style="edgeStyle=orthogonalEdgeStyle;rounded=0;orthogonalLoop=1;jettySize=auto;html=1;entryX=0;entryY=0.5;entryDx=0;entryDy=0;" edge="1" parent="1" source="iomMhKjx7vtd8hV3Dabb-1" target="iomMhKjx7vtd8hV3Dabb-4">
          <mxGeometry relative="1" as="geometry" />
        </mxCell>
        <mxCell id="iomMhKjx7vtd8hV3Dabb-1" value="Database&lt;br&gt;SQL/Oracle" style="shape=cylinder3;whiteSpace=wrap;html=1;boundedLbl=1;backgroundOutline=1;size=15;" vertex="1" parent="1">
          <mxGeometry x="120" y="180" width="70" height="80" as="geometry" />
        </mxCell>
        <mxCell id="iomMhKjx7vtd8hV3Dabb-2" value="" style="sketch=0;points=[[0,0,0],[0.25,0,0],[0.5,0,0],[0.75,0,0],[1,0,0],[0,1,0],[0.25,1,0],[0.5,1,0],[0.75,1,0],[1,1,0],[0,0.25,0],[0,0.5,0],[0,0.75,0],[1,0.25,0],[1,0.5,0],[1,0.75,0]];outlineConnect=0;fontColor=#232F3E;fillColor=#8C4FFF;strokeColor=#ffffff;dashed=0;verticalLabelPosition=bottom;verticalAlign=top;align=center;html=1;fontSize=12;fontStyle=0;aspect=fixed;shape=mxgraph.aws4.resourceIcon;resIcon=mxgraph.aws4.open_3d_engine_2;" vertex="1" parent="1">
          <mxGeometry x="1030" y="340" width="78" height="78" as="geometry" />
        </mxCell>
        <mxCell id="iomMhKjx7vtd8hV3Dabb-8" style="edgeStyle=orthogonalEdgeStyle;rounded=0;orthogonalLoop=1;jettySize=auto;html=1;entryX=0;entryY=0.5;entryDx=0;entryDy=0;" edge="1" parent="1" source="iomMhKjx7vtd8hV3Dabb-3" target="iomMhKjx7vtd8hV3Dabb-7">
          <mxGeometry relative="1" as="geometry" />
        </mxCell>
        <mxCell id="iomMhKjx7vtd8hV3Dabb-3" value="Python" style="rounded=1;whiteSpace=wrap;html=1;" vertex="1" parent="1">
          <mxGeometry x="540" y="191" width="120" height="60" as="geometry" />
        </mxCell>
        <mxCell id="iomMhKjx7vtd8hV3Dabb-6" style="edgeStyle=orthogonalEdgeStyle;rounded=0;orthogonalLoop=1;jettySize=auto;html=1;entryX=0;entryY=0.5;entryDx=0;entryDy=0;" edge="1" parent="1" source="iomMhKjx7vtd8hV3Dabb-4" target="iomMhKjx7vtd8hV3Dabb-3">
          <mxGeometry relative="1" as="geometry" />
        </mxCell>
        <mxCell id="iomMhKjx7vtd8hV3Dabb-4" value="Read" style="rhombus;whiteSpace=wrap;html=1;" vertex="1" parent="1">
          <mxGeometry x="330" y="180" width="80" height="80" as="geometry" />
        </mxCell>
        <mxCell id="iomMhKjx7vtd8hV3Dabb-7" value="Fine tune" style="rhombus;whiteSpace=wrap;html=1;" vertex="1" parent="1">
          <mxGeometry x="770" y="181" width="80" height="80" as="geometry" />
        </mxCell>
        <mxCell id="iomMhKjx7vtd8hV3Dabb-9" style="edgeStyle=orthogonalEdgeStyle;rounded=0;orthogonalLoop=1;jettySize=auto;html=1;entryX=0;entryY=0.5;entryDx=0;entryDy=0;" edge="1" parent="1" source="iomMhKjx7vtd8hV3Dabb-7" target="kVDzBYqYakB7j1AS__2U-1">
          <mxGeometry relative="1" as="geometry">
            <Array as="points">
              <mxPoint x="920" y="221" />
              <mxPoint x="920" y="221" />
            </Array>
          </mxGeometry>
        </mxCell>
        <mxCell id="iomMhKjx7vtd8hV3Dabb-10" value="Django/Flask/FastAPI API" style="shape=process;whiteSpace=wrap;html=1;backgroundOutline=1;" vertex="1" parent="1">
          <mxGeometry x="700" y="470" width="160" height="80" as="geometry" />
        </mxCell>
        <mxCell id="iomMhKjx7vtd8hV3Dabb-17" value="Use Any Dummy SQL For the MVP Model" style="text;html=1;strokeColor=none;fillColor=none;align=center;verticalAlign=middle;whiteSpace=wrap;rounded=0;" vertex="1" parent="1">
          <mxGeometry x="30" y="280" width="120" height="60" as="geometry" />
        </mxCell>
        <mxCell id="kVDzBYqYakB7j1AS__2U-2" value="" style="edgeStyle=orthogonalEdgeStyle;rounded=0;orthogonalLoop=1;jettySize=auto;html=1;" edge="1" parent="1" source="kVDzBYqYakB7j1AS__2U-1" target="iomMhKjx7vtd8hV3Dabb-2">
          <mxGeometry relative="1" as="geometry">
            <Array as="points">
              <mxPoint x="1069" y="270" />
              <mxPoint x="1069" y="270" />
            </Array>
          </mxGeometry>
        </mxCell>
        <mxCell id="kVDzBYqYakB7j1AS__2U-1" value="SQL Agent" style="rounded=1;whiteSpace=wrap;html=1;" vertex="1" parent="1">
          <mxGeometry x="1009" y="190" width="120" height="60" as="geometry" />
        </mxCell>
        <mxCell id="kVDzBYqYakB7j1AS__2U-7" value="Chatbot Frontend&lt;br&gt;(Streamlit)" style="shape=callout;whiteSpace=wrap;html=1;perimeter=calloutPerimeter;" vertex="1" parent="1">
          <mxGeometry x="250" y="473" width="150" height="100" as="geometry" />
        </mxCell>
        <mxCell id="kVDzBYqYakB7j1AS__2U-8" value="Request" style="text;html=1;strokeColor=none;fillColor=none;align=center;verticalAlign=middle;whiteSpace=wrap;rounded=0;" vertex="1" parent="1">
          <mxGeometry x="939" y="520" width="70" height="20" as="geometry" />
        </mxCell>
        <mxCell id="kVDzBYqYakB7j1AS__2U-10" value="Response" style="text;html=1;strokeColor=none;fillColor=none;align=center;verticalAlign=middle;whiteSpace=wrap;rounded=0;" vertex="1" parent="1">
          <mxGeometry x="939" y="480" width="70" height="20" as="geometry" />
        </mxCell>
        <mxCell id="kVDzBYqYakB7j1AS__2U-11" value="" style="shape=flexArrow;endArrow=classic;startArrow=classic;html=1;rounded=0;exitX=1;exitY=0.5;exitDx=0;exitDy=0;" edge="1" parent="1">
          <mxGeometry width="100" height="100" relative="1" as="geometry">
            <mxPoint x="860" y="510" as="sourcePoint" />
            <mxPoint x="1070" y="420" as="targetPoint" />
            <Array as="points">
              <mxPoint x="1020" y="510" />
              <mxPoint x="1070" y="510" />
              <mxPoint x="1070" y="452" />
            </Array>
          </mxGeometry>
        </mxCell>
        <mxCell id="kVDzBYqYakB7j1AS__2U-13" value="&lt;h1&gt;&lt;font face=&quot;Helvetica&quot; style=&quot;font-size: 18px;&quot;&gt;OpenAI&lt;/font&gt;&lt;/h1&gt;" style="text;html=1;strokeColor=none;fillColor=none;align=center;verticalAlign=middle;whiteSpace=wrap;rounded=0;" vertex="1" parent="1">
          <mxGeometry x="954" y="364.5" width="68" height="29" as="geometry" />
        </mxCell>
        <mxCell id="kVDzBYqYakB7j1AS__2U-14" value="" style="shape=flexArrow;endArrow=classic;startArrow=classic;html=1;rounded=0;exitX=0;exitY=0;exitDx=150;exitDy=35;entryX=0;entryY=0.5;entryDx=0;entryDy=0;exitPerimeter=0;" edge="1" parent="1" source="kVDzBYqYakB7j1AS__2U-7" target="iomMhKjx7vtd8hV3Dabb-10">
          <mxGeometry width="100" height="100" relative="1" as="geometry">
            <mxPoint x="390" y="508" as="sourcePoint" />
            <mxPoint x="600" y="418" as="targetPoint" />
            <Array as="points">
              <mxPoint x="550" y="508" />
              <mxPoint x="600" y="508" />
            </Array>
          </mxGeometry>
        </mxCell>
        <mxCell id="kVDzBYqYakB7j1AS__2U-16" value="Request" style="text;html=1;strokeColor=none;fillColor=none;align=center;verticalAlign=middle;whiteSpace=wrap;rounded=0;" vertex="1" parent="1">
          <mxGeometry x="510" y="526" width="70" height="20" as="geometry" />
        </mxCell>
        <mxCell id="kVDzBYqYakB7j1AS__2U-17" value="Response" style="text;html=1;strokeColor=none;fillColor=none;align=center;verticalAlign=middle;whiteSpace=wrap;rounded=0;" vertex="1" parent="1">
          <mxGeometry x="510" y="476" width="70" height="20" as="geometry" />
        </mxCell>
        <mxCell id="kVDzBYqYakB7j1AS__2U-18" value="&lt;h1&gt;&lt;font style=&quot;font-size: 18px;&quot;&gt;Database Discovery Tool&lt;/font&gt;&lt;/h1&gt;" style="text;html=1;align=center;verticalAlign=middle;resizable=0;points=[];autosize=1;strokeColor=none;fillColor=none;" vertex="1" parent="1">
          <mxGeometry x="465" y="630" width="240" height="70" as="geometry" />
        </mxCell>
      </root>
    </mxGraphModel>
  </diagram>
</mxfile>
